<svg width="242" height="244" viewBox="0 0 242 244" fill="none" xmlns="http://www.w3.org/2000/svg">
<circle cx="122" cy="118" r="118" fill="white"/>
<path fill-rule="evenodd" clip-rule="evenodd" d="M122 236C187.17 236 240 183.17 240 118C240 52.8304 187.17 0 122 0C56.8304 0 4 52.8304 4 118C4 183.17 56.8304 236 122 236ZM122.5 212C174.139 212 216 170.139 216 118.5C216 66.8614 174.139 25 122.5 25C70.8614 25 29 66.8614 29 118.5C29 170.139 70.8614 212 122.5 212Z" fill="#413C93"/>
<g filter="url(#filter0_d_0_1)">
<path fill-rule="evenodd" clip-rule="evenodd" d="M237.558 94H149V143H237.346C225.879 196.162 178.592 236 122 236C56.8304 236 4 183.17 4 118C4 52.8304 56.8304 0 122 0C178.946 0 226.47 40.3385 237.558 94Z" fill="#645EC6"/>
</g>
<g filter="url(#filter1_d_0_1)">
<circle cx="121" cy="118" r="72" fill="white"/>
</g>
<defs>
<filter id="filter0_d_0_1" x="0" y="0" width="241.558" height="244" filterUnits="userSpaceOnUse" color-interpolation-filters="sRGB">
<feFlood flood-opacity="0" result="BackgroundImageFix"/>
<feColorMatrix in="SourceAlpha" type="matrix" values="0 0 0 0 0 0 0 0 0 0 0 0 0 0 0 0 0 0 127 0" result="hardAlpha"/>
<feOffset dy="4"/>
<feGaussianBlur stdDeviation="2"/>
<feComposite in2="hardAlpha" operator="out"/>
<feColorMatrix type="matrix" values="0 0 0 0 0 0 0 0 0 0 0 0 0 0 0 0 0 0 0.25 0"/>
<feBlend mode="normal" in2="BackgroundImageFix" result="effect1_dropShadow_0_1"/>
<feBlend mode="normal" in="SourceGraphic" in2="effect1_dropShadow_0_1" result="shape"/>
</filter>
<filter id="filter1_d_0_1" x="45" y="46" width="152" height="152" filterUnits="userSpaceOnUse" color-interpolation-filters="sRGB">
<feFlood flood-opacity="0" result="BackgroundImageFix"/>
<feColorMatrix in="SourceAlpha" type="matrix" values="0 0 0 0 0 0 0 0 0 0 0 0 0 0 0 0 0 0 127 0" result="hardAlpha"/>
<feOffset dy="4"/>
<feGaussianBlur stdDeviation="2"/>
<feComposite in2="hardAlpha" operator="out"/>
<feColorMatrix type="matrix" values="0 0 0 0 0 0 0 0 0 0 0 0 0 0 0 0 0 0 0.25 0"/>
<feBlend mode="normal" in2="BackgroundImageFix" result="effect1_dropShadow_0_1"/>
<feBlend mode="normal" in="SourceGraphic" in2="effect1_dropShadow_0_1" result="shape"/>
</filter>
</defs>
</svg>
