<svg width="113" height="102" viewBox="0 0 113 102" fill="none" xmlns="http://www.w3.org/2000/svg">
<path d="M0.186983 96.4761L15.2856 63.3848L36.3942 93.0062L0.186983 96.4761Z" fill="black"/>
<circle cx="62.5" cy="51.5" r="47.5" fill="#645FC6"/>
<path d="M61.3573 23C68.9521 23 74.7782 24.4933 78.8357 27.48C82.9452 30.4133 85 34.8133 85 40.68C85 43.88 84.4278 46.6267 83.2834 48.92C82.191 51.16 80.5784 53 78.4456 54.44C76.3648 55.8267 73.8159 56.84 70.7988 57.48C67.7817 58.12 64.3744 58.44 60.577 58.44H54.5688V79H47V24.36C49.1328 23.8267 51.4997 23.48 54.1006 23.32C56.7536 23.1067 59.1725 23 61.3573 23ZM61.9815 29.8C58.7563 29.8 56.2854 29.88 54.5688 30.04V51.8H60.2649C62.8658 51.8 65.2067 51.64 67.2875 51.32C69.3682 50.9467 71.1109 50.36 72.5154 49.56C73.9719 48.7067 75.0904 47.56 75.8706 46.12C76.6509 44.68 77.0411 42.84 77.0411 40.6C77.0411 38.4667 76.6249 36.7067 75.7926 35.32C75.0123 33.9333 73.9199 32.84 72.5154 32.04C71.1629 31.1867 69.5763 30.6 67.7556 30.28C65.935 29.96 64.0103 29.8 61.9815 29.8Z" fill="white"/>
<circle cx="62" cy="51" r="47.5" stroke="black" stroke-width="7"/>
</svg>
