<svg width="32" height="32" viewBox="0 0 32 32" fill="none" xmlns="http://www.w3.org/2000/svg">
<path d="M31.2537 16.2994C31.2537 14.9883 31.1473 14.0316 30.9171 13.0395H15.9465V18.9568H24.7339C24.5568 20.4274 23.6001 22.642 21.474 24.1301L21.4442 24.3282L26.1777 27.9951L26.5056 28.0278C29.5174 25.2463 31.2537 21.1537 31.2537 16.2994Z" fill="#4285F4"/>
<path d="M15.9465 31.8901C20.2516 31.8901 23.8657 30.4727 26.5056 28.0278L21.474 24.1301C20.1276 25.0691 18.3204 25.7246 15.9465 25.7246C11.7299 25.7246 8.15116 22.9431 6.87543 19.0986L6.68844 19.1145L1.76655 22.9236L1.70218 23.1025C4.32423 28.3112 9.71012 31.8901 15.9465 31.8901Z" fill="#34A853"/>
<path d="M6.87543 19.0986C6.53882 18.1065 6.34401 17.0434 6.34401 15.945C6.34401 14.8465 6.53882 13.7836 6.85772 12.7915L6.84881 12.5802L1.86524 8.70986L1.70218 8.78742C0.621511 10.9489 0.00141907 13.3761 0.00141907 15.945C0.00141907 18.514 0.621511 20.9411 1.70218 23.1025L6.87543 19.0986Z" fill="#FBBC05"/>
<path d="M15.9465 6.16537C18.9405 6.16537 20.9602 7.45869 22.1118 8.53948L26.6119 4.14571C23.8481 1.57679 20.2516 0 15.9465 0C9.71012 0 4.32423 3.57875 1.70218 8.78742L6.85772 12.7915C8.15116 8.94693 11.7299 6.16537 15.9465 6.16537Z" fill="#EB4335"/>
</svg>
